<?xml version="1.0" encoding="utf-8"?>
<!-- Generator: Adobe Illustrator 21.0.0, SVG Export Plug-In . SVG Version: 6.00 Build 0)  -->
<svg version="1.1" id="Layer_1" xmlns="http://www.w3.org/2000/svg" xmlns:xlink="http://www.w3.org/1999/xlink" x="0px" y="0px"
	 viewBox="0 0 256 256" style="enable-background:new 0 0 256 256;" xml:space="preserve">
<style type="text/css">
	.st0{fill:#88E288;}
	.st1{fill:#FCD770;}
	.st2{fill:#ACDEF9;}
	.st3{fill:#FC7783;}
	.st4{fill:#6DCC6D;}
	.st5{fill:#FFCD29;}
	.st6{fill:#55ACD5;}
	.st7{fill:#EA4647;}
	.st8{fill:#231F20;}
</style>
<g id="Layer_38">
	<circle class="st0" cx="30.6" cy="218.5" r="15.8"/>
	<circle class="st1" cx="30.6" cy="97.6" r="15.8"/>
	<circle class="st2" cx="30.6" cy="158.1" r="15.8"/>
	<circle class="st3" cx="30.6" cy="37.2" r="15.8"/>
	<path class="st4" d="M108.3,207.8H42.2c5.6,6,5.6,15.4,0,21.4h66.4c5.9,0,10.7-4.8,10.7-10.7c0-0.1,0-0.1,0-0.2
		C119.1,212.4,114.2,207.8,108.3,207.8z"/>
	<path class="st5" d="M138.4,86.9H42.2c5.6,6,5.6,15.4,0,21.4h96.5c5.9,0,10.7-4.8,10.7-10.7c0-0.1,0-0.1,0-0.2
		C149.2,91.5,144.3,86.9,138.4,86.9z"/>
	<path class="st6" d="M230.1,147.4H42.2c5.6,6,5.6,15.4,0,21.4h188.3c5.9,0,10.7-4.8,10.7-10.7c0-0.1,0-0.1,0-0.2
		C240.9,152,236,147.3,230.1,147.4z"/>
	<path class="st7" d="M165.3,26.5H42.2c5.6,6,5.6,15.4,0,21.4h123.4c5.9,0,10.7-4.8,10.7-10.7c0-0.1,0-0.1,0-0.2
		C176.1,31.1,171.2,26.4,165.3,26.5z"/>
	<path class="st5" d="M153.1,226.6c-0.1-0.1-0.2-0.2-0.4-0.3c-0.1-0.1-0.3-0.2-0.4-0.2c-0.1-0.1-0.3-0.1-0.5-0.1
		c-0.3-0.1-0.7-0.1-1,0c-0.2,0-0.3,0.1-0.5,0.1c-0.1,0.1-0.3,0.1-0.4,0.2c-0.1,0.1-0.3,0.2-0.4,0.3c-0.9,1-0.9,2.5,0,3.5
		c0.1,0.1,0.2,0.2,0.4,0.3c0.3,0.2,0.6,0.3,0.9,0.4c0.3,0.1,0.7,0.1,1,0c0.2,0,0.3-0.1,0.5-0.1c0.2-0.1,0.3-0.1,0.4-0.2
		c0.1-0.1,0.3-0.2,0.4-0.3C154,229.1,154.1,227.6,153.1,226.6C153.1,226.6,153.1,226.6,153.1,226.6z"/>
	<path class="st5" d="M209,29.7c-0.1-0.1-0.2-0.2-0.4-0.3c-0.1-0.1-0.3-0.2-0.4-0.2c-0.1-0.1-0.3-0.1-0.5-0.1c-0.3-0.1-0.7-0.1-1,0
		c-0.3,0.1-0.6,0.2-0.9,0.4c-0.1,0.1-0.3,0.2-0.4,0.3c-0.9,1-0.9,2.5,0,3.5c0.1,0.1,0.2,0.2,0.4,0.3c0.1,0.1,0.3,0.2,0.4,0.2
		c0.2,0.1,0.3,0.1,0.5,0.1c0.3,0.1,0.7,0.1,1,0c0.2,0,0.3-0.1,0.5-0.1c0.1-0.1,0.3-0.1,0.4-0.2c0.1-0.1,0.3-0.2,0.4-0.3
		C210,32.2,210,30.7,209,29.7C209,29.7,209,29.7,209,29.7z"/>
	<path class="st7" d="M194.6,7.7c-3.8-0.7-6.8-3.7-7.5-7.5c0-0.1-0.1-0.2-0.2-0.1c-0.1,0-0.1,0.1-0.1,0.1C186,4,183,6.9,179.2,7.7
		c-0.1,0-0.2,0.1-0.1,0.2c0,0.1,0.1,0.1,0.1,0.1c3.8,0.7,6.8,3.7,7.5,7.5c0,0.1,0.1,0.2,0.2,0.1c0.1,0,0.1-0.1,0.1-0.1
		c0.7-3.8,3.7-6.8,7.5-7.5c0.1,0,0.2-0.1,0.1-0.2C194.7,7.7,194.7,7.7,194.6,7.7z"/>
	<path class="st4" d="M171.7,248c-3.8-0.7-6.8-3.7-7.5-7.5c0-0.1-0.1-0.2-0.2-0.1c-0.1,0-0.1,0.1-0.1,0.1c-0.7,3.8-3.7,6.8-7.5,7.5
		c-0.1,0-0.2,0.1-0.1,0.2c0,0.1,0.1,0.1,0.1,0.1c3.8,0.7,6.8,3.7,7.5,7.5c0,0.1,0.1,0.2,0.2,0.1c0.1,0,0.1-0.1,0.1-0.1
		c0.7-3.8,3.7-6.8,7.5-7.5c0.1,0,0.2-0.1,0.1-0.2C171.8,248.1,171.8,248,171.7,248z"/>
	<path class="st6" d="M193.3,200.3h-1.8v-1.8c0-1.4-1.1-2.5-2.5-2.5s-2.5,1.1-2.5,2.5v1.8h-1.8c-1.4,0-2.5,1.1-2.5,2.5
		s1.1,2.5,2.5,2.5h1.8v1.8c0,1.4,1.1,2.5,2.5,2.5s2.5-1.1,2.5-2.5v-1.8h1.8c1.4,0,2.5-1.1,2.5-2.5S194.7,200.3,193.3,200.3z"/>
	<path class="st8" d="M30.6,200.3c-10.1,0-18.3,8.2-18.3,18.3c0,10.1,8.2,18.3,18.3,18.3s18.3-8.2,18.3-18.3
		C48.9,208.4,40.7,200.3,30.6,200.3z M30.6,231.8c-7.3,0-13.3-5.9-13.3-13.3c0-7.3,5.9-13.3,13.3-13.3s13.3,5.9,13.3,13.3
		C43.9,225.9,37.9,231.8,30.6,231.8z"/>
	<path class="st8" d="M108.3,205.3H42.2c-1.4,0-2.5,1.1-2.5,2.5c0,0.6,0.2,1.2,0.7,1.7c4.7,5.1,4.7,12.9,0,18
		c-0.9,1-0.9,2.6,0.1,3.5c0.5,0.4,1.1,0.7,1.7,0.7h66.4c7.3,0,13.2-5.9,13.2-13.2c0-0.1,0-0.2,0-0.2
		C121.6,211,115.6,205.3,108.3,205.3z M114.5,224.3c-1.5,1.6-3.6,2.5-5.8,2.5H46.9c2.6-5.2,2.6-11.2,0-16.4h61.3
		c4.6-0.1,8.3,3.5,8.5,8C116.9,220.6,116,222.7,114.5,224.3L114.5,224.3z"/>
	<path class="st8" d="M30.6,79.4c-10.1,0-18.3,8.2-18.3,18.3s8.2,18.3,18.3,18.3s18.3-8.2,18.3-18.3C48.9,87.6,40.7,79.4,30.6,79.4z
		 M30.6,110.9c-7.3,0-13.3-5.9-13.3-13.3c0-7.3,5.9-13.3,13.3-13.3s13.3,5.9,13.3,13.3C43.9,105,37.9,110.9,30.6,110.9z"/>
	<path class="st8" d="M138.4,84.4H42.2c-1.4,0-2.5,1.1-2.5,2.5c0,0.6,0.2,1.2,0.7,1.7c4.7,5.1,4.7,12.9,0,18c-0.9,1-0.9,2.6,0.1,3.5
		c0.5,0.4,1.1,0.7,1.7,0.7h96.5c7.3,0,13.2-5.9,13.2-13.2c0-0.1,0-0.2,0-0.2C151.6,90.1,145.6,84.4,138.4,84.4z M144.6,103.4
		c-1.5,1.6-3.6,2.5-5.8,2.5H46.9c2.6-5.2,2.6-11.2,0-16.4h91.4c4.6-0.1,8.3,3.5,8.5,8C147,99.7,146.1,101.8,144.6,103.4L144.6,103.4
		z"/>
	<path class="st8" d="M30.6,139.8c-10.1,0-18.3,8.2-18.3,18.3c0,10.1,8.2,18.3,18.3,18.3s18.3-8.2,18.3-18.3
		C48.9,148,40.7,139.8,30.6,139.8z M30.6,171.4c-7.3,0-13.3-5.9-13.3-13.3c0-7.3,5.9-13.3,13.3-13.3s13.3,5.9,13.3,13.3
		C43.9,165.4,37.9,171.4,30.6,171.4z"/>
	<path class="st8" d="M230.1,144.9H42.2c-1.4,0-2.5,1.1-2.5,2.5c0,0.6,0.2,1.2,0.7,1.7c4.7,5.1,4.7,12.9,0,18
		c-0.9,1-0.9,2.6,0.1,3.5c0.5,0.4,1.1,0.7,1.7,0.7h188.3c7.3,0,13.2-5.9,13.2-13.2c0-0.1,0-0.2,0-0.2
		C243.4,150.6,237.4,144.8,230.1,144.9z M236.3,163.8c-1.5,1.6-3.6,2.5-5.8,2.5H46.9c2.6-5.2,2.6-11.2,0-16.4h183.2
		c4.6-0.1,8.3,3.5,8.5,8C238.7,160.1,237.9,162.3,236.3,163.8L236.3,163.8z"/>
	<path class="st8" d="M30.6,18.9c-10.1,0-18.3,8.2-18.3,18.3s8.2,18.3,18.3,18.3c10.1,0,18.3-8.2,18.3-18.3
		C48.9,27.1,40.7,18.9,30.6,18.9z M30.6,50.5c-7.3,0-13.3-5.9-13.3-13.3c0-7.3,5.9-13.3,13.3-13.3s13.3,5.9,13.3,13.3c0,0,0,0,0,0
		C43.9,44.5,37.9,50.5,30.6,50.5z"/>
	<path class="st8" d="M165.3,24H42.2c-1.4,0-2.5,1.1-2.5,2.5c0,0.6,0.2,1.2,0.7,1.7c4.7,5.1,4.7,12.9,0,18c-0.9,1-0.9,2.6,0.1,3.5
		c0.5,0.4,1.1,0.7,1.7,0.7h123.4c7.3,0,13.2-5.9,13.2-13.2c0-0.1,0-0.2,0-0.2C178.5,29.7,172.5,23.9,165.3,24z M171.5,42.9
		c-1.5,1.6-3.6,2.5-5.8,2.5H46.9c2.6-5.2,2.6-11.2,0-16.4h118.3c4.6-0.1,8.3,3.5,8.5,8C173.9,39.2,173,41.4,171.5,42.9L171.5,42.9z"
		/>
</g>
</svg>
